<svg width="34" height="34" viewBox="0 0 34 34" fill="none" xmlns="http://www.w3.org/2000/svg">
<path d="M23.2196 3.3288C26.3373 4.74953 28.8751 7.19539 30.4111 10.2597C31.947 13.324 32.3885 16.8221 31.6621 20.1723C30.9357 23.5225 29.0852 26.523 26.4184 28.6748C23.7515 30.8266 20.4289 32 17.0032 32C13.5774 32 10.2548 30.8266 7.58798 28.6748C4.92111 26.523 3.07064 23.5225 2.34426 20.1723C1.61788 16.8221 2.05936 13.324 3.59529 10.2597C5.13122 7.19539 7.66905 4.74953 10.7868 3.3288" stroke="#252029" stroke-width="3" stroke-linecap="round" stroke-linejoin="round"/>
<path d="M17.0721 2L16.9934 21.4693" stroke="#252029" stroke-width="3" stroke-linecap="round" stroke-linejoin="round"/>
<path d="M23.8589 16.4986L16.9835 23.4379" stroke="#252029" stroke-width="3" stroke-linecap="round" stroke-linejoin="round"/>
<path d="M10.2261 16.4986L16.9834 23.4379" stroke="#252029" stroke-width="3" stroke-linecap="round" stroke-linejoin="round"/>
</svg>
