<svg xmlns="http://www.w3.org/2000/svg" viewBox="0 0 816.22 210.72">
  <defs>
    <style>
      .cls-1 {
        fill: #f39323;
      }

      .cls-2 {
        fill: #015236;
      }
    </style>
  </defs>
  <title>лого полное</title>
  <g id="Слой_2" data-name="Слой 2">
    <g id="Слой_1-2" data-name="Слой 1">
      <path class="cls-1" d="M113.89,124.88v24.43a5.62,5.62,0,0,1-5.17,5.62c-1,.08-2,.11-2.93.11q-21.71,0-36.17-14.27T55.16,105q0-20.92,14.61-35.49a48.46,48.46,0,0,1,35.54-14.57q23.34,0,36.79,13.65t13.46,37.28v41.52a5.65,5.65,0,0,1-5.64,5.64H125.13a5.64,5.64,0,0,1-5.64-5.64V108.46q0-7.62-3.72-12.15a12.23,12.23,0,0,0-10-4.54A14.2,14.2,0,0,0,95.57,115.6a12.78,12.78,0,0,0,9.55,3.86,16.7,16.7,0,0,0,2.36-.17A5.64,5.64,0,0,1,113.89,124.88Z"/>
      <path class="cls-2" d="M180.72,30V150.72a30,30,0,0,1-30,30H60a30,30,0,0,1-30-30V60A30,30,0,0,1,60,30H180.72m30-30H60A60.07,60.07,0,0,0,0,60v90.72a60.07,60.07,0,0,0,60,60h90.72a60.07,60.07,0,0,0,60-60V0Z"/>
      <path class="cls-1" d="M113.89,124.88v24.43a5.62,5.62,0,0,1-5.17,5.62c-1,.08-2,.11-2.93.11q-21.71,0-36.17-14.27T55.16,105q0-20.92,14.61-35.49a48.46,48.46,0,0,1,35.54-14.57q23.34,0,36.79,13.65t13.46,37.28v41.52a5.65,5.65,0,0,1-5.64,5.64H125.13a5.64,5.64,0,0,1-5.64-5.64V108.46q0-7.62-3.72-12.15a12.23,12.23,0,0,0-10-4.54A14.2,14.2,0,0,0,95.57,115.6a12.78,12.78,0,0,0,9.55,3.86,16.7,16.7,0,0,0,2.36-.17A5.64,5.64,0,0,1,113.89,124.88Z"/>
      <g>
        <path class="cls-2" d="M288.36,111.39v23.43a5.64,5.64,0,0,1-5.64,5.64h0a5.64,5.64,0,0,0-5.64,5.65v20.06a5.65,5.65,0,0,1-5.65,5.64H243.56a5.64,5.64,0,0,1-5.64-5.64V88.09q0-24.3,13.26-37.76t37.28-13.45q23.15,0,34.24,12.2t11.09,37.66v79.43a5.65,5.65,0,0,1-5.64,5.64H300.27a5.65,5.65,0,0,1-5.64-5.64V89.35c0-5.15-.61-8.71-1.83-10.71s-3.41-3-6.56-3q-9.17,0-9.16,13.7V100.1a5.63,5.63,0,0,0,5.64,5.64h0A5.65,5.65,0,0,1,288.36,111.39Z"/>
        <path class="cls-2" d="M390.88,45.8V166.17a5.64,5.64,0,0,1-5.64,5.64H360.46a5.65,5.65,0,0,1-5.65-5.64V45.8a5.64,5.64,0,0,1,5.65-5.64h24.78A5.63,5.63,0,0,1,390.88,45.8Zm51.14,38-12.34,24.48a5.65,5.65,0,0,0-.14,4.77l21.82,50.86a5.65,5.65,0,0,1-5.19,7.87h-27.4a5.64,5.64,0,0,1-5.31-3.73L393,111.27a5.67,5.67,0,0,1,.25-4.39l13.79-28.07a5.65,5.65,0,0,1,5.07-3.16H437A5.64,5.64,0,0,1,442,83.83Z"/>
        <path class="cls-2" d="M587.59,171.81H562.8a5.65,5.65,0,0,1-5.64-5.64V119.92c0-4-.42-6.75-1.25-8.29s-2.35-2.32-4.54-2.32q-6.07,0-6.07,10.71v46.15a5.65,5.65,0,0,1-5.64,5.64H514.87a5.64,5.64,0,0,1-5.64-5.64V119.92c0-4-.44-6.75-1.31-8.29s-2.39-2.32-4.58-2.32q-6,0-6,10.71v46.15a5.64,5.64,0,0,1-5.64,5.64H466.93a5.65,5.65,0,0,1-5.64-5.64V112.59a38.22,38.22,0,0,1,10.9-27.53,35.29,35.29,0,0,1,26.43-11.34q13.8,0,25.18,10a5.65,5.65,0,0,0,7.34.1q12.29-10.16,24.57-10.15,18,0,28.94,13.12,8.58,10.23,8.58,29.8v49.53A5.64,5.64,0,0,1,587.59,171.81Z"/>
        <path class="cls-1" d="M667.79,143.67V168.1a5.63,5.63,0,0,1-5.17,5.62c-1,.08-2,.12-2.93.12q-21.71,0-36.17-14.28t-14.47-35.78q0-20.93,14.61-35.49A48.46,48.46,0,0,1,659.2,73.72q23.34,0,36.8,13.65t13.45,37.28v41.52a5.64,5.64,0,0,1-5.64,5.64H679a5.65,5.65,0,0,1-5.64-5.64V127.25q0-7.62-3.71-12.15a12.24,12.24,0,0,0-10-4.53,14.2,14.2,0,0,0-10.23,23.82,12.78,12.78,0,0,0,9.55,3.86,17,17,0,0,0,2.37-.17A5.64,5.64,0,0,1,667.79,143.67Z"/>
        <path class="cls-2" d="M810.58,171.81H785.79a5.65,5.65,0,0,1-5.64-5.64V117.51q0-8.3-6.85-8.29t-6.75,8.29v48.66a5.65,5.65,0,0,1-5.64,5.64H736.12a5.65,5.65,0,0,1-5.64-5.64v-48q0-18.81,12.44-31.69A40.76,40.76,0,0,1,773.4,73.63q20.64,0,33.08,15,9.74,11.67,9.74,32.5v45.09A5.64,5.64,0,0,1,810.58,171.81Z"/>
      </g>
    </g>
  </g>
</svg>
