<svg width="32" height="31" viewBox="0 0 32 31" fill="none" xmlns="http://www.w3.org/2000/svg">
<path d="M28.0192 23.7151C27.6925 23.4279 24.4354 20.5634 23.627 19.8992C22.538 19.0051 21.3815 19.4295 20.9341 19.7708C19.9671 20.4852 18.4914 21.5585 18.2499 21.7012C18.2332 21.7051 18.2002 21.7039 18.1691 21.7002C17.5976 21.2798 15.046 19.3397 13.9225 17.4014C12.8272 15.5179 12.2893 14.0599 11.9333 13.0947C11.8513 12.8716 11.7775 12.6727 11.7088 12.4989C11.6165 12.2644 11.7115 12.1006 11.8061 12.0093C12.1001 11.8352 13.2418 11.147 13.88 10.5646C14.852 9.67882 14.7348 8.49854 14.7177 8.36406C14.6534 7.8664 14.0834 3.47372 13.8793 2.60343C13.6256 1.5132 12.4145 0.810888 10.2804 0.51644C8.79497 0.311551 6.89752 2.07836 6.31298 2.6675C4.89648 3.9085 4.37601 5.50584 4.25122 8.96725C4.12183 12.5749 6.35083 16.9431 8.77937 21.1255C11.3519 25.5568 17.2113 29.5034 20.1154 30.274C23.029 31.047 25.4471 29.6319 26.3574 29.0988L26.4256 29.0588C27.6166 28.3672 28.4186 26.1651 28.5534 25.657C28.8168 24.6664 28.3647 23.9912 28.0191 23.7152L28.0192 23.7151Z" fill="#412A2A"/>
</svg>
